<svg xmlns="http://www.w3.org/2000/svg" viewBox="0 0 800 800">
    <defs>
        <linearGradient id="a" x1="50%" x2="0%" y1="0%" y2="100%">
            <stop offset="50%" stop-color="hsl(0, 0%, 87%)" />
            <stop offset="100%" stop-color="hsl(0, 0%, 100%)" />
        </linearGradient>
    </defs>
    <g fill="none" stroke="url(#a)">
        <path
            d="M1153.221 255.286C1323.44 713.41 917.173 1344.787 625.165 1488.35 333.157 1631.913-78.2 1402.51-248.418 944.386-418.636 486.263-483.89-567.08-191.882-710.644c292.009-143.562 1174.885 507.806 1345.103 965.93C1323.44 713.41 917.173 1344.787 625.165 1488.35" />
        <path
            d="M1120.472 261.578C1283.29 699.783 894.687 1303.71 615.375 1441.03c-279.312 137.321-672.784-82.107-835.601-520.313C-383.043 482.512-445.46-525.034-166.147-662.355c279.312-137.32 1123.802 485.728 1286.62 923.933C1283.29 699.783 894.686 1303.71 615.374 1441.03" />
        <path
            d="M1087.724 267.87c155.416 418.287-215.522 994.762-482.139 1125.84-266.616 131.08-642.203-78.375-797.619-496.662C-347.45 478.762-407.03-482.987-140.414-614.066 126.204-745.145 932.308-150.417 1087.725 267.87c155.416 418.287-215.522 994.762-482.139 1125.84" />
        <path
            d="M1054.975 274.162c148.016 398.368-205.26 947.392-459.18 1072.23-253.92 124.836-611.621-74.644-759.637-473.013C-311.858 475.011-368.6-440.94-114.68-565.777c253.92-124.837 1021.64 441.57 1169.655 839.939 148.016 398.368-205.26 947.392-459.18 1072.23" />
        <path
            d="M1022.226 280.454c140.615 378.45-194.996 900.023-436.22 1018.618C344.782 1417.667 4.965 1228.16-135.65 849.71-276.265 471.26-330.17-398.893-88.945-517.49 152.279-636.082 881.61-97.995 1022.226 280.455s-194.996 900.023-436.22 1018.618" />
        <path
            d="M989.477 286.746c133.215 358.531-184.733 852.653-413.261 965.006-228.528 112.354-550.46-67.179-683.674-425.71C-240.672 467.51-291.74-356.846-63.21-469.2 165.317-581.553 856.263-71.786 989.477 286.746c133.215 358.531-184.733 852.653-413.261 965.006" />
        <path
            d="M956.729 293.037c125.813 338.614-174.47 805.284-390.303 911.396-215.832 106.111-519.878-63.447-645.692-402.06C-205.079 463.759-253.31-314.8-37.478-420.911 178.355-527.022 830.915-45.576 956.73 293.037c125.813 338.614-174.47 805.284-390.303 911.396" />
        <path
            d="M923.98 299.33c118.412 318.694-164.207 757.913-367.344 857.783-203.136 99.87-489.297-59.715-607.71-378.41C-169.486 460.01-214.88-272.751-11.744-372.621 191.393-472.492 805.567-19.365 923.98 299.33c118.412 318.695-164.207 757.914-367.344 857.784" />
        <path
            d="M891.231 305.621c111.012 298.777-153.944 710.545-344.384 804.172-190.44 93.628-458.717-55.982-569.728-354.758C-133.893 456.258-176.45-230.705 13.99-324.333 204.43-417.96 780.22 6.845 891.231 305.621c111.012 298.777-153.944 710.545-344.384 804.172" />
        <path
            d="M858.482 311.913c103.611 278.858-143.681 663.175-321.425 750.56-177.744 87.387-428.135-52.25-531.746-331.107C-98.3 452.508-138.02-188.658 39.724-276.044c177.744-87.386 715.148 309.1 818.758 587.957 103.611 278.858-143.681 663.175-321.425 750.56" />
        <path
            d="M825.734 318.205c96.21 258.94-133.419 615.805-298.467 696.95-165.048 81.143-397.554-48.519-493.764-307.458-96.21-258.94-133.093-854.308 31.955-935.452s664.066 287.02 760.276 545.96c96.21 258.94-133.419 615.805-298.467 696.95" />
        <path
            d="M792.985 324.497c88.81 239.021-123.156 568.436-275.508 643.338-152.352 74.902-366.973-44.786-455.782-283.807-88.81-239.021-122.855-788.592 29.497-863.494 152.352-74.902 612.984 264.942 701.793 503.963 88.81 239.021-123.156 568.436-275.508 643.338" />
        <path
            d="M760.236 330.789c81.409 219.103-112.892 521.066-252.548 589.726-139.657 68.66-336.392-41.054-417.801-260.156C8.478 441.256-22.73-62.517 116.927-131.177c139.655-68.66 561.9 242.863 643.31 461.966 81.408 219.103-112.893 521.066-252.55 589.726" />
        <path
            d="M727.487 337.08c74.008 199.185-102.63 473.697-229.59 536.116-126.96 62.418-305.81-37.322-379.818-236.506C44.071 437.506 15.7-20.47 142.66-82.89c126.96-62.418 510.82 220.786 584.827 419.97 74.008 199.184-102.63 473.696-229.59 536.115" />
        <path
            d="M694.739 343.373c66.607 179.266-92.367 426.326-206.631 482.503-114.264 56.177-275.23-33.59-341.837-212.855C79.664 433.755 54.131 21.577 168.394-34.6 282.658-90.777 628.132 164.106 694.74 343.372c66.607 179.266-92.367 426.326-206.631 482.503" />
        <path
            d="M661.99 349.665c59.206 159.347-82.104 378.957-183.672 428.892C376.75 828.49 233.67 748.699 174.463 589.352 115.257 430.004 92.56 63.624 194.128 13.689 295.696-36.246 602.784 190.317 661.99 349.665c59.206 159.347-82.104 378.957-183.672 428.892" />
        <path
            d="M629.241 355.957c51.806 139.429-71.84 331.587-160.713 375.28-88.872 43.693-214.067-26.125-265.873-165.554-51.805-139.43-71.665-460.012 17.207-503.705 88.872-43.693 357.574 154.55 409.38 293.979 51.805 139.429-71.841 331.587-160.714 375.28" />
        <path
            d="M596.492 362.249c44.405 119.51-61.577 284.217-137.753 321.668-76.176 37.452-183.487-22.393-227.892-141.903-44.404-119.51-61.427-394.296 14.75-431.747 76.175-37.451 306.49 132.471 350.895 251.982 44.405 119.51-61.577 284.217-137.753 321.668" />
        <path
            d="M563.744 368.54c37.004 99.593-51.315 236.849-114.795 268.058-63.48 31.21-152.906-18.661-189.91-118.253-37.003-99.592-51.189-328.58 12.291-359.79 63.48-31.209 255.41 110.393 292.414 209.985 37.004 99.593-51.315 236.849-114.795 268.058" />
        <path
            d="M530.995 374.832c29.603 79.674-41.052 189.479-91.836 214.446-50.784 24.968-122.324-14.928-151.927-94.602-29.604-79.674-40.952-262.864 9.832-287.831 50.784-24.968 204.328 88.314 233.931 167.987 29.603 79.674-41.052 189.479-91.836 214.446" />
        <path
            d="M498.246 381.124c22.203 59.756-30.789 142.11-68.877 160.835-38.088 18.725-91.743-11.197-113.945-70.952-22.203-59.755-30.714-197.148 7.374-215.874 38.088-18.725 153.246 66.236 175.448 125.991 22.203 59.756-30.789 142.11-68.877 160.835" />
        <path
            d="M465.497 387.416c14.802 39.837-20.525 94.74-45.917 107.223-25.392 12.484-61.163-7.464-75.964-47.301-14.802-39.837-20.476-131.432 4.916-143.916 25.392-12.483 102.164 44.157 116.965 83.994 14.802 39.837-20.525 94.74-45.917 107.223" />
        <path
            d="M432.749 393.708c7.4 19.919-10.263 47.37-22.96 53.612-12.695 6.241-30.58-3.733-37.981-23.651-7.4-19.918-10.238-65.716 2.458-71.958 12.696-6.242 51.082 22.079 58.483 41.997 7.4 19.919-10.263 47.37-22.96 53.612" />
    </g>
</svg>